<?xml version="1.0" encoding="UTF-8" standalone="no"?>
<!-- Created with Inkscape (http://www.inkscape.org/) -->

<svg
   xmlns:svg="http://www.w3.org/2000/svg"
   xmlns="http://www.w3.org/2000/svg"
   version="1.1"
   width="216.34975mm"
   height="201.55814mm"
   viewBox="0 0 216.34975 201.55814"
   id="svg991">
  <defs
     id="defs985" />
  <g
     transform="translate(-15.643585,-39.601098)"
     id="layer1">
    <g
       transform="matrix(0.71876362,0,0,0.71876362,-151.94145,57.815756)"
       id="g983">
      <path
         d="m 424.81868,254.94144 c -0.18836,-0.076 -0.33073,-0.59587 -0.33073,-1.20772 v -1.07429 l -1.78593,0.16735 c -0.98227,0.092 -2.61938,0.39714 -3.63802,0.67797 -1.01865,0.28086 -2.50693,0.55004 -3.3073,0.59825 l -1.4552,0.0876 0.0576,-0.79375 c 0.0317,-0.43656 0.0912,-1.15094 0.13229,-1.5875 0.0732,-0.7775 0.0503,-0.7934 -1.11593,-0.77716 -0.65484,0.009 -2.20833,0.23135 -3.45219,0.49385 -1.97669,0.41714 -2.70993,0.44299 -5.82084,0.2051 -1.95759,-0.14967 -4.39269,-0.49387 -5.41134,-0.76486 -1.22368,-0.32551 -2.52537,-0.46738 -3.83646,-0.41814 -2.96562,0.11139 -2.97644,0.11123 -3.9026,-0.0595 -0.73401,-0.13528 -0.8599,-0.26985 -0.8599,-0.91924 0,-0.63516 -0.13504,-0.79039 -0.81807,-0.94041 -0.44994,-0.0988 -1.63726,-0.58455 -2.6385,-1.07934 -1.00123,-0.49483 -1.92721,-0.89969 -2.05772,-0.89969 -0.19215,0 -2.92184,-1.50514 -4.80446,-2.64914 -0.21828,-0.13267 -1.11125,-0.55073 -1.98437,-0.92909 -0.87313,-0.37835 -1.82563,-0.82214 -2.11667,-0.98623 -0.67854,-0.38251 -1.94308,-0.99984 -4.10104,-2.002 -1.86924,-0.86812 -5.01401,-3.4952 -6.47612,-5.41007 -1.21909,-1.5966 -1.48766,-3.5265 -0.64868,-4.66127 0.56282,-0.76126 0.56422,-0.79033 0.10513,-2.18717 -0.2559,-0.77862 -1.20944,-2.86213 -2.11899,-4.63005 -0.90954,-1.76792 -1.73474,-3.69404 -1.83378,-4.28027 -0.16206,-0.95922 -0.10938,-1.1122 0.52651,-1.52885 0.67966,-0.44533 0.74851,-0.4418 1.80595,0.0925 2.49935,1.26298 4.62748,1.71543 7.91857,1.68353 3.28405,-0.0318 6.52135,-0.68807 7.3164,-1.48313 0.35609,-0.35608 0.33719,-0.4429 -0.1744,-0.80123 -1.47188,-1.03095 -1.76186,-1.83602 -0.95273,-2.64514 0.35151,-0.35152 0.72358,-0.40544 1.83734,-0.26629 0.92435,0.11549 1.60285,0.0627 2.00662,-0.15609 0.37788,-0.20477 1.88296,-0.35141 3.95466,-0.3853 3.45306,-0.0565 6.99349,-0.50922 7.25189,-0.92731 0.081,-0.13112 -0.27573,-0.44014 -0.79281,-0.68672 -0.67323,-0.32104 -0.94015,-0.62047 -0.94015,-1.05468 0,-1.13078 0.87334,-1.38263 5.29693,-1.52753 7.08903,-0.23219 10.11544,-0.43344 12.29787,-0.81775 1.16416,-0.205 3.36682,-0.50133 4.89479,-0.65851 3.21588,-0.33082 5.7465,-0.88426 7.3393,-1.6051 0.61688,-0.27917 1.27172,-0.50937 1.45521,-0.51156 0.44157,-0.005 2.25907,-0.64266 2.48944,-0.87302 0.0997,-0.0997 0.49591,-0.18133 0.88041,-0.18133 0.8832,0 1.7249,-0.6001 1.53517,-1.09453 -0.0796,-0.20752 -0.74568,-0.53131 -1.48011,-0.71953 -0.73442,-0.18823 -1.63356,-0.60121 -1.99807,-0.91773 -0.565,-0.49061 -0.63456,-0.7121 -0.47154,-1.50155 0.1835,-0.88858 0.24304,-0.92935 1.47194,-1.00805 0.70439,-0.0451 1.53352,-0.24213 1.8425,-0.43784 0.30898,-0.19571 1.18673,-0.43785 1.95055,-0.53809 0.76383,-0.10024 1.45546,-0.29016 1.53697,-0.42205 0.0815,-0.13189 0.33155,-0.2398 0.55563,-0.2398 0.22408,0 0.7826,-0.16082 1.24115,-0.35737 2.00445,-0.85918 3.85598,-1.48047 5.33165,-1.78906 0.87313,-0.18258 1.82563,-0.47971 2.11667,-0.66027 0.79554,-0.49356 3.6022,-1.42663 4.29127,-1.42663 0.33299,0 1.03588,-0.2307 1.56196,-0.51267 l 0.95652,-0.51266 -0.69289,-0.64216 c -0.82996,-0.76917 -0.8747,-1.32571 -0.16373,-2.03668 0.3695,-0.3695 0.88194,-0.52917 1.69835,-0.52917 1.02464,0 2.67685,-0.59302 3.06436,-1.09988 0.0731,-0.0956 0.48991,-0.276 0.92624,-0.40086 0.98373,-0.28151 4.17302,-2.29357 7.36869,-4.64875 1.33127,-0.98113 2.56657,-1.78481 2.74511,-1.78594 0.17855,-0.001 0.52494,-0.30778 0.76977,-0.68143 0.24482,-0.37365 1.24019,-1.07975 2.21193,-1.56911 1.77861,-0.89569 1.99994,-1.05519 4.72504,-3.40519 2.66138,-2.29504 3.21342,-2.84956 3.21342,-3.22782 0,-0.20451 0.41672,-0.54595 0.92604,-0.75875 0.50933,-0.21281 0.92605,-0.51207 0.92605,-0.66501 0,-0.15295 0.13169,-0.27809 0.29265,-0.27809 0.30502,0 1.86642,-1.16169 3.34796,-2.49093 0.47437,-0.4256 1.14993,-0.96198 1.50124,-1.19196 0.86155,-0.564 3.37703,-2.71432 5.27277,-4.50735 3.13282,-2.96308 3.5611,-3.41042 3.40985,-3.56167 -0.33989,-0.33989 -0.87462,-0.10341 -2.2247,0.98385 -0.77732,0.62601 -1.79121,1.37015 -2.25307,1.65365 -0.46187,0.2835 -2.00968,1.22282 -3.43959,2.08739 -1.4299,0.86456 -2.95012,1.85839 -3.37827,2.20851 -0.75166,0.61467 -8.18594,4.30605 -9.44931,4.6919 -0.34109,0.10418 -1.58919,0.77059 -2.77357,1.48093 -1.18438,0.71033 -2.29067,1.29152 -2.45843,1.29152 -0.2871,0 -1.24384,0.42294 -5.70691,2.52283 -2.97993,1.40207 -4.71161,2.13776 -5.4901,2.33241 -0.40019,0.10005 -0.72761,0.29871 -0.72761,0.44146 0,0.14275 -0.26789,0.25961 -0.59531,0.25968 -0.66133,1.5e-4 -2.78215,0.75569 -4.87841,1.73792 -0.75497,0.35376 -1.48305,0.6432 -1.61796,0.6432 -0.13491,0 -0.52924,0.21921 -0.87628,0.48715 -0.85989,0.66386 -6.35109,2.10488 -13.06641,3.42892 -0.72761,0.14346 -2.98979,0.69658 -5.02708,1.22914 -2.28664,0.59775 -4.46356,0.99558 -5.68855,1.03958 -1.0914,0.0392 -2.16296,0.14135 -2.38125,0.22699 -0.99304,0.38964 -2.84326,0.68198 -3.49539,0.55229 -0.3945,-0.0785 -1.31055,-2.7e-4 -2.03567,0.17363 -1.26902,0.30444 -2.6299,1.4317 -4.00321,3.316 -1.25696,1.72466 -3.43104,2.54036 -4.22406,1.58484 -0.44228,-0.53292 -1.03471,-0.50171 -1.25256,0.066 -0.26795,0.69828 -1.69434,2.18297 -2.09724,2.18297 -0.20026,0 -0.35437,-0.28363 -0.35437,-0.65221 0,-0.90873 0.78051,-3.11496 1.21772,-3.44207 0.19946,-0.14924 0.43867,-0.65829 0.53158,-1.13124 0.2102,-1.06994 -0.18083,-1.12306 -1.52804,-0.20761 -0.52796,0.35875 -2.1927,1.26838 -3.69944,2.0214 -1.50674,0.75301 -3.24505,1.85301 -3.86291,2.44444 -1.47283,1.40982 -1.79878,1.12611 -1.69265,-1.47333 0.0427,-1.04595 0.18776,-2.1075 0.32236,-2.35899 0.36946,-0.69035 0.29412,-1.2858 -0.1627,-1.2858 -1.17142,0 -4.22583,2.09484 -4.4694,3.06531 -0.10968,0.43697 -0.27508,0.59062 -0.48875,0.45402 -0.17764,-0.11356 -0.97782,-0.26726 -1.77818,-0.34155 l -1.45521,-0.13507 0.0854,-1.05834 c 0.11456,-1.41907 0.78914,-5.36208 1.08639,-6.35 0.13136,-0.43656 0.31173,-1.22929 0.40083,-1.76163 0.25353,-1.5147 2.69565,-3.85489 5.17422,-4.95824 2.60654,-1.16033 4.01069,-1.8214 4.49792,-2.11764 0.21828,-0.13272 1.14107,-0.44986 2.05064,-0.70476 1.49293,-0.41838 1.99,-0.43134 5.1114,-0.13326 1.9017,0.1816 3.79937,0.4282 4.21705,0.54798 0.41767,0.11979 2.25564,0.22159 4.08438,0.22622 1.82873,0.005 3.43023,0.0735 3.55887,0.15299 0.23476,0.14509 6.90924,-0.44954 10.02951,-0.89353 1.96777,-0.28 3.15354,-0.92191 2.70387,-1.46374 -0.22046,-0.26564 -1.53568,-0.38175 -5.24323,-0.4629 -4.59096,-0.10048 -5.1499,-0.16773 -7.72707,-0.92969 -4.59647,-1.35899 -7.70264,-2.61088 -9.43442,-3.80237 -0.61158,-0.42078 -1.25313,-0.76505 -1.42566,-0.76505 -0.3873,0 -2.98101,-0.87381 -3.16284,-1.06554 -0.20645,-0.21771 -3.0337,-1.05113 -3.56577,-1.05113 -0.50114,0 -6.42991,-2.06688 -6.88527,-2.40034 -0.14552,-0.10656 -0.80036,-0.32942 -1.45521,-0.49525 -0.65484,-0.16582 -1.42875,-0.4109 -1.71979,-0.54463 -1.55911,-0.71636 -5.43085,-2.09292 -6.35,-2.25768 -0.58208,-0.10434 -1.54418,-0.4066 -2.13798,-0.67168 -2.32288,-1.03695 -3.86496,-1.56836 -4.1106,-1.41654 -0.14134,0.0874 -0.53302,-0.022 -0.87039,-0.24311 -0.33738,-0.22105 -1.30449,-0.58238 -2.14914,-0.80295 -1.63178,-0.42612 -3.86756,-1.80745 -5.41905,-3.34805 -2.1091,-2.0943 -3.62967,-2.86545 -4.11182,-2.08531 -0.0974,0.15759 -0.78904,0.68049 -1.53697,1.162 -0.74794,0.4815 -2.49098,1.99584 -3.87342,3.36519 -1.38245,1.36936 -3.27499,3.01935 -4.20565,3.66665 -3.7815,2.63016 -5.46686,3.6775 -5.7519,3.57444 -0.16513,-0.0597 -1.35576,0.60619 -2.64583,1.47979 -1.29007,0.8736 -2.6893,1.78733 -3.1094,2.03052 -0.4201,0.24319 -1.3726,0.84221 -2.11667,1.33117 -0.74406,0.48895 -2.87592,1.65318 -4.73746,2.58718 -1.86154,0.934 -3.44964,1.86763 -3.52912,2.07475 -0.1922,0.50086 -3.36146,2.43458 -6.31543,3.85334 -1.30969,0.62903 -3.35661,1.89579 -4.54871,2.81502 -1.19211,0.91923 -2.2643,1.67133 -2.38265,1.67133 -0.25984,0 -3.94453,4.06382 -5.72793,6.31731 -0.70522,0.8911 -1.48506,1.62018 -1.73298,1.62018 -0.67632,0 -2.61756,-1.34557 -2.76729,-1.91815 -0.0721,-0.27557 0.0851,-1.15611 0.34921,-1.95675 0.41218,-1.24939 0.42573,-1.47663 0.0956,-1.60331 -0.71989,-0.27625 -2.28435,0.73215 -4.84927,3.12567 -0.9058,0.84528 -2.0266,1.27848 -3.34087,1.2913 -0.47894,0.005 -0.95884,-1.47167 -0.76511,-2.35371 0.1618,-0.73669 0.96401,-1.60334 2.10453,-2.27359 0.55374,-0.32542 0.29516,-1.19062 -0.35584,-1.19062 -0.97627,0 -3.93719,2.36022 -4.29766,3.42578 -0.11544,0.34124 -2.01389,-0.18196 -2.67114,-0.73614 -0.62653,-0.52827 -0.58261,-1.30867 0.17646,-3.13522 1.0519,-2.53121 1.96467,-5.73794 1.83268,-6.43857 -0.099,-0.52531 0.10428,-0.84474 1.01719,-1.59872 0.62747,-0.51824 1.73617,-1.21279 2.46377,-1.54345 0.7276,-0.33067 2.03729,-0.94147 2.91042,-1.35734 0.99202,-0.47251 2.42693,-0.86876 3.82536,-1.05639 1.23082,-0.16514 2.448,-0.41272 2.70485,-0.55018 0.25685,-0.13746 1.06449,-0.36324 1.79474,-0.50174 0.73027,-0.13849 1.82739,-0.4932 2.43807,-0.78825 0.61068,-0.29504 1.4384,-0.53645 1.83938,-0.53645 0.4086,0 0.88101,-0.21527 1.07478,-0.48977 0.19015,-0.26936 0.70292,-0.68846 1.13948,-0.93131 0.43657,-0.24285 1.29447,-0.82612 1.90646,-1.29617 0.61199,-0.47004 2.0729,-1.569 3.24646,-2.44212 1.17357,-0.87313 2.19677,-1.82735 2.27377,-2.12049 0.077,-0.29314 0.55739,-0.81897 1.06751,-1.16851 1.26948,-0.86987 4.89087,-5.18318 5.66555,-6.74805 0.22078,-0.44598 0.87563,-1.51306 1.45521,-2.37129 1.62212,-2.40197 2.22041,-3.43198 2.23294,-3.84417 0.01,-0.32953 0.61747,-1.33839 2.41939,-4.01818 0.25574,-0.38033 0.54305,-1.10764 0.63847,-1.61624 0.1722,-0.91791 0.16533,-0.92603 -0.93157,-1.10143 -1.27246,-0.20347 -2.90588,-0.97706 -3.45168,-1.6347 -0.20649,-0.2488 -0.90116,-0.67772 -1.54373,-0.95316 -0.64256,-0.27543 -1.57112,-0.85448 -2.06347,-1.28676 -0.49235,-0.43229 -0.99373,-0.78598 -1.11417,-0.78598 -0.12045,0 -0.65823,-0.34906 -1.19507,-0.77568 -0.9599,-0.76284 -1.0164,-0.7732 -3.40982,-0.62562 -1.33856,0.0825 -2.65852,0.26597 -2.93325,0.40764 -0.27473,0.14167 -2.06067,0.36397 -3.96875,0.49401 -6.1621,0.41996 -8.4935,0.6733 -9.0788,0.98654 -0.31535,0.16877 -1.33234,0.30686 -2.25998,0.30686 -1.08387,0 -1.87016,0.1403 -2.20021,0.39258 -0.28247,0.21592 -0.97688,0.52269 -1.54312,0.68171 -0.56624,0.15903 -1.45921,0.5598 -1.98437,0.89061 -0.52517,0.33081 -1.69312,0.94677 -2.59546,1.36881 -1.12568,0.52649 -1.68768,0.95367 -1.79057,1.36101 -0.0825,0.32653 -1.45756,1.74945 -3.05574,3.16205 -1.59819,1.41261 -2.90642,2.63373 -2.90719,2.71361 -8e-4,0.0799 -0.83358,1.03821 -1.85068,2.12962 -1.98169,2.12646 -2.2807,2.96967 -1.35135,3.81073 0.27541,0.24924 0.84095,0.54653 1.25677,0.66065 0.74754,0.20515 0.75546,0.2285 0.70467,2.07641 -0.0489,1.7804 -0.0207,1.87661 0.59531,2.03123 0.77906,0.19554 0.80903,0.504 0.14024,1.44323 -0.27855,0.39119 -0.5923,1.18347 -0.69723,1.76064 -0.28231,1.55278 -0.98047,2.75077 -2.42508,4.16123 -2.60548,2.54387 -5.07411,2.39909 -8.7189,-0.51137 -0.60658,-0.48437 -1.2279,-0.88067 -1.38072,-0.88067 -0.36348,0 -2.27804,-2.59736 -2.53834,-3.44361 -0.11122,-0.36158 -0.28963,-0.77649 -0.39648,-0.92201 -0.10684,-0.14552 -0.34076,-1.03092 -0.5198,-1.96756 -0.3701,-1.93602 -0.14067,-7.58946 0.33177,-8.17546 0.15672,-0.19438 0.36917,-1.06772 0.47211,-1.94074 0.13955,-1.18359 0.38614,-1.83493 0.96949,-2.56082 0.43028,-0.53543 0.85978,-1.21754 0.95444,-1.5158 0.0947,-0.29826 1.00794,-1.35634 2.0295,-2.35128 2.09148,-2.03699 4.2236,-4.92595 4.2236,-5.72285 0,-0.60984 1.7833,-3.9545 2.90297,-5.44465 3.29512,-4.38542 7.95916,-9.01527 10.45849,-10.38182 1.01864,-0.55697 2.14974,-1.10155 2.51354,-1.2102 0.3638,-0.10864 1.02097,-0.4665 1.46038,-0.79524 0.43941,-0.32874 1.68957,-0.97107 2.77813,-1.42739 2.83494,-1.18841 2.71893,-1.06264 2.24152,-2.43011 -0.44455,-1.27332 -2.16813,-3.95004 -2.5435,-3.95004 -0.1278,0 -0.23237,-0.1821 -0.23237,-0.40467 0,-0.45761 -8.28278,-8.898761 -9.18192,-9.357481 -0.32062,-0.16358 -1.01564,-0.94928 -1.54448,-1.74601 -1.19731,-1.80383 -2.72507,-3.03453 -4.31973,-3.47979 -0.67413,-0.188159 -2.23775,-0.624928 -3.47468,-0.970516 -1.23692,-0.345588 -3.08239,-1.069726 -4.10104,-1.609199 -3.16504,-1.676196 -6.58515,-3.692662 -7.81641,-4.60848 -1.60367,-1.192827 -3.84296,-2.566546 -5.28046,-3.239355 -0.65484,-0.306496 -2.91703,-1.367684 -5.02708,-2.358196 -2.11006,-0.990513 -4.43177,-2.007114 -5.15938,-2.259113 -3.8588,-1.336461 -4.66056,-1.745787 -7.69508,-3.928605 -1.52619,-1.097822 -2.82929,-2.602119 -4.9602,-5.726004 -0.34743,-0.509323 -1.00285,-1.322612 -1.45651,-1.807308 -1.75815,-1.87847 -3.31564,-5.12977 -3.25345,-6.79165 0.12742,-3.405158 0.39584,-5.989807 0.70066,-6.746875 0.20506,-0.509323 0.49565,-1.412314 0.64574,-2.00665 0.25898,-1.025488 2.88525,-4.779878 4.93123,-7.049434 0.48902,-0.542462 1.06105,-1.397772 1.27119,-1.900692 0.21775,-0.521166 0.84615,-1.221518 1.46122,-1.628553 0.59354,-0.392787 1.07916,-0.798867 1.07916,-0.902401 0,-0.166452 2.49205,-2.728497 16.34789,-16.807061 1.86184,-1.89177 3.7644,-3.992652 4.2279,-4.668625 1.1885,-1.733325 4.05857,-4.505939 6.544,-6.321806 1.16417,-0.850543 2.43315,-1.791507 2.81997,-2.091026 0.38682,-0.2995214 1.06562,-0.5445844 1.50845,-0.5445844 0.44282,0 1.49556,-0.190468 2.3394,-0.423264 0.84384,-0.232794 1.83192,-0.483286 2.19572,-0.556647 1.91276,-0.385709 4.65405,-2.188188 5.9883,-3.9374812 0.65569,-0.859655 0.85313,-1.5152343 1.42745,-4.73989909 0.24791,-1.39191731 0.57086,-2.91408901 1.03851,-4.89479151 0.15461,-0.6548438 0.35693,-1.6073437 0.4496,-2.1166666 0.24452,-1.3438663 2.13619,-5.4541842 3.17672,-6.9025232 0.49186,-0.684626 1.17579,-1.315427 1.51986,-1.401784 0.54886,-0.137753 4.07158,-3.972281 4.7881,-5.211911 0.14552,-0.251759 1.13883,-1.421259 2.20735,-2.598887 1.76854,-1.949124 2.03134,-2.141144 2.93045,-2.141144 0.92287,0 2.13824,0.813613 2.13824,1.431418 0,0.113677 0.23623,0.538441 0.52496,0.943918 1.03433,1.452588 1.31687,3.684293 1.35737,10.721538 0.0209,3.6380211 0.112,8.4005209 0.20235,10.5833334 l 0.16428,3.9687498 3.32372,0.161245 c 1.82805,0.088683 3.91164,0.2909544 4.63021,0.4494901 0.71857,0.1585357 2.31852,0.4807931 3.55545,0.7161261 3.85018,0.732526 7.45089,1.874179 10.11371,3.2066922 2.12967,1.065723 2.52095,1.096706 2.85205,0.225835 0.13897,-0.365514 0.73134,-1.4012202 1.31637,-2.3015682 0.58503,-0.900348 1.0637,-1.7751529 1.0637,-1.9440126 0,-0.1688571 0.45526,-0.8297941 1.01169,-1.4687444 0.55643,-0.63895019 1.08066,-1.34971089 1.16495,-1.57946719 0.23258,-0.6339866 2.01379,-3.36098081 2.3182,-3.54911271 0.14721,-0.090982 0.26766,-0.4038785 0.26766,-0.695325 0,-0.3072077 1.02853,-1.6071876 2.44739,-3.0933019 1.34607,-1.4098693 2.90109,-3.1202076 3.45559,-3.8007476 2.1716,-2.665176 6.22222,-3.73191 10.74351,-2.829308 1.26773,0.253082 1.62853,0.48877 3.12919,2.044133 2.72887,2.8283432 2.98171,3.3359543 4.03852,8.1080664 0.16113,0.7276042 0.4634,1.9182291 0.6717,2.6458333 0.40897,1.42856471 0.37074,5.5139507 -0.0953,10.1864579 -0.13789,1.3824484 -0.19135,3.1262454 -0.11879,3.8751044 l 0.13193,1.361561 1.66999,0.17884 c 1.49983,0.160618 1.95652,0.07885 4.48202,-0.802481 1.54662,-0.539726 3.24712,-1.203143 3.77889,-1.474256 0.53178,-0.271113 1.17578,-0.492934 1.43111,-0.492934 0.25534,0 0.85524,-0.165307 1.33312,-0.367348 0.47788,-0.202041 1.52372,-0.630894 2.32408,-0.953003 1.48315,-0.5969004 8.02025,-3.7218484 11.68501,-5.5858146 1.11524,-0.567235 2.18163,-1.031335 2.36975,-1.031335 0.18812,0 1.00206,-0.4605604 1.80875,-1.0234694 0.80668,-0.5629063 1.76436,-1.1082919 2.12816,-1.2119662 0.3638,-0.103677 1.15433,-0.41145619 1.75674,-0.68395589 0.6024,-0.2724996 1.43584,-0.5769689 1.85208,-0.6765977 0.41624,-0.099629 0.87587,-0.2700391 1.02139,-0.3786902 0.14552,-0.1086538 0.67324,-0.2850594 1.17272,-0.3920119 0.88118,-0.18869031 2.53678,-0.99225101 3.04738,-1.47907641 0.13824,-0.1318075 0.4359,-0.2403819 0.66146,-0.2412788 0.22556,-7.938e-4 0.76485,-0.186608 1.19844,-0.4126918 0.43358,-0.2260864 1.38608,-0.5327174 2.11667,-0.6814079 0.73058,-0.1486879 1.96118,-0.4999963 2.73467,-0.7806822 2.11344,-0.7669371 3.71156,-1.1092497 5.47282,-1.1722576 0.87313,-0.031237 3.07578,-0.2969075 4.89479,-0.5903807 10.82737,-1.7468452 11.07355,-1.7690728 15.55769,-1.4045432 3.28204,0.2668085 4.93114,0.5520902 7.85794,1.3593656 4.77211,1.3162518 9.22549,2.9023548 11.55483,4.1153317 1.01032,0.5261134 4.53773,1.94816151 4.83511,1.94923831 0.4136,0.00159 2.30067,1.35791569 3.86984,2.78162009 0.8109,0.7357295 2.29918,1.7724652 3.30729,2.3038542 1.00811,0.531389 2.47951,1.4502182 3.26978,2.0418402 0.79026,0.591621 1.50464,1.076245 1.5875,1.076941 0.0829,7.94e-4 0.5718,0.387649 1.08653,0.859896 0.51474,0.472247 1.23228,1.052306 1.59454,1.2890184 0.76514,0.49998 1.19049,0.851458 4.18615,3.459136 1.97381,1.71818 5.59997,5.882396 7.43863,8.542414 0.36381,0.526314 1.8822,2.409285 3.37421,4.184375 1.49201,1.775089 2.89335,3.607614 3.11412,4.072273 0.22077,0.464659 0.66691,1.059971 0.99142,1.322917 0.32454,0.262945 0.74803,0.785029 0.94115,1.16019 0.19309,0.37516 1.05328,1.494205 1.91153,2.486768 1.73877,2.010873 4.74882,7.645834 4.74882,8.890021 0,0.41167 0.10994,1.021987 0.24429,1.356257 2.00531,4.988668 2.86695,13.092577 1.90725,17.937969 -0.41256,2.082871 -0.50974,7.241338 -0.19465,10.329581 0.17777,1.742403 0.12861,2.89337 -0.21474,5.027083 -0.36676,2.279333 -0.38975,3.000563 -0.13033,4.09021 0.17322,0.727604 0.31649,1.918229 0.31837,2.645833 0.007,2.921474 -0.42756,8.293887 -0.79285,9.789587 -0.4809,1.96926 -0.56359,3.8943 -0.33528,7.805201 0.22143,3.79256 0.81817,5.21317 3.2231,7.67292 1.99345,2.03887 3.45565,3.06349 5.694,3.99002 0.90717,0.3755 1.85967,0.85646 2.11666,1.06879 0.54123,0.44713 2.33871,1.29119 2.74966,1.29119 0.15401,0 0.58274,0.23813 0.95274,0.52917 0.37002,0.29104 0.98409,0.53156 1.36466,0.53448 0.46358,0.004 1.07982,0.39591 1.86743,1.189 0.64654,0.65102 1.38274,1.24944 1.63597,1.32981 0.25324,0.0804 0.72454,0.70619 1.04733,1.39069 0.32279,0.68451 1.15615,1.91055 1.85195,2.72453 1.11691,1.30666 1.28656,1.67022 1.44883,3.10441 0.10107,0.89343 0.34724,1.76007 0.547,1.92586 0.19976,0.16578 0.36359,0.55474 0.3641,0.86434 0,0.4964 0.83706,2.75804 1.95151,5.27788 0.80611,1.82265 1.65859,5.18239 1.72447,6.79628 0.0381,0.93445 0.16331,1.88186 0.27813,2.10534 0.11486,0.22348 0.28112,1.18024 0.3695,2.12613 0.0884,0.94588 0.32109,3.08901 0.51715,4.7625 0.19606,1.67349 0.33909,4.41192 0.31787,6.08541 -0.0345,2.72001 -0.13734,3.33735 -0.96972,5.82084 -0.51213,1.52796 -1.11996,3.37343 -1.35073,4.10104 -0.66815,2.10664 -2.2892,6.75213 -2.89004,8.28211 -0.6944,1.24353 -4.95635,8.59548 -7.8204,11.26292 -0.67598,0.34963 -2.44739,2.29737 -2.44739,2.69103 0,0.0959 -0.77391,1.03908 -1.71979,2.09594 -0.94589,1.05687 -1.7198,2.09077 -1.7198,2.29757 0,0.2068 -0.65804,1.02588 -1.46235,1.82018 -1.0863,1.07283 -1.50267,1.69647 -1.61922,2.42535 -0.10496,0.65633 -0.64815,1.57677 -1.64071,2.78012 -2.11373,2.56261 -7.12483,7.65094 -9.06756,9.20728 -0.90824,0.7276 -3.03078,2.69213 -4.71673,4.36562 -3.29101,3.26665 -5.32777,5.08177 -9.12086,8.12827 -2.91302,2.33968 -2.72223,2.19252 -3.85798,2.97558 -0.50932,0.35115 -1.75948,1.25825 -2.77813,2.01575 -3.39803,2.52696 -7.80953,5.01873 -10.9802,6.20199 -1.43763,0.53653 -4.49138,2.04936 -5.95313,2.94921 -1.67164,1.02904 -8.29541,4.45212 -8.61502,4.45212 -0.49812,0 -5.21645,2.41609 -6.92432,3.5457 -0.97955,0.64792 -2.05111,1.26035 -2.38125,1.36099 -0.33013,0.10063 -0.77884,0.33391 -0.99712,0.5184 -0.21828,0.18447 -1.05172,0.66022 -1.85208,1.0572 -0.80036,0.39698 -1.6338,0.87693 -1.85208,1.06659 -0.68352,0.59383 -4.70849,2.50528 -5.27541,2.50528 -0.29724,0 -1.76195,0.46337 -3.25491,1.02971 -5.00428,1.8983 -7.02684,2.39191 -8.07229,1.97006 z m 7.34219,-4.24638 c 0.80036,-0.23577 1.57427,-0.58912 1.71979,-0.78523 0.14552,-0.19611 0.95862,-0.46929 1.80688,-0.60708 1.18756,-0.19294 2.05023,-0.58854 3.75065,-1.71996 1.21459,-0.80816 2.96134,-1.84295 3.88166,-2.29952 0.92032,-0.45659 2.73209,-1.52648 4.02616,-2.37754 1.29407,-0.85106 2.43648,-1.54739 2.53868,-1.54739 0.10221,0 0.3914,-0.22714 0.64264,-0.50477 0.50944,-0.56293 4.1397,-2.40565 4.73924,-2.40565 0.21129,0 1.22736,-0.41672 2.25794,-0.92604 1.03057,-0.50932 2.01652,-0.92604 2.191,-0.92604 0.17448,0 0.5052,-0.16317 0.73494,-0.36258 0.42814,-0.37164 2.30295,-1.46328 4.0397,-2.35223 0.53688,-0.2748 1.11701,-0.66934 1.28917,-0.87678 0.17215,-0.20743 0.57383,-0.37716 0.89262,-0.37716 0.31878,0 1.59179,-0.51647 2.8289,-1.14774 1.23711,-0.63124 2.61131,-1.22012 3.05376,-1.3086 0.44246,-0.0885 1.94736,-0.94125 3.34423,-1.895 1.39688,-0.95374 2.6584,-1.73408 2.80338,-1.73408 0.14499,0 0.35883,-0.15957 0.4752,-0.35462 0.2651,-0.44431 5.53122,-4.67235 5.82003,-4.67275 0.11681,-1.6e-4 0.92676,-0.65635 1.79989,-1.45817 0.87312,-0.80183 1.85539,-1.52898 2.18281,-1.61589 0.32742,-0.0869 0.59531,-0.3237 0.59531,-0.52621 0,-0.2025 0.0894,-0.36819 0.19878,-0.36819 0.10932,0 0.89267,-0.65097 1.74077,-1.4466 0.8481,-0.79562 1.91951,-1.68183 2.38091,-1.96934 0.46141,-0.28752 0.99163,-0.77226 1.1783,-1.07722 0.18666,-0.30495 0.46566,-0.47642 0.62,-0.38103 0.34358,0.21235 2.61249,-1.9626 2.61249,-2.5043 0,-0.21403 0.38695,-0.78026 0.8599,-1.2583 0.47294,-0.47803 1.17827,-1.20086 1.56742,-1.60628 1.12564,-1.1728 6.36389,-6.06395 7.16383,-6.68916 0.40018,-0.31277 0.7276,-0.71635 0.7276,-0.89685 0,-0.18049 0.35719,-0.67037 0.79375,-1.08863 0.43656,-0.41825 0.79375,-1.0267 0.79375,-1.35212 0,-0.32541 0.29766,-0.9454 0.66146,-1.37775 0.3638,-0.43236 0.66146,-0.85224 0.66146,-0.93308 0,-0.69985 2.83543,-3.87767 3.45987,-3.87767 0.13436,0 0.24429,-0.26902 0.24429,-0.59781 0,-0.3288 0.23813,-0.74653 0.52917,-0.92829 0.29104,-0.18176 0.52917,-0.49575 0.52917,-0.69776 0,-0.36056 2.65432,-4.00382 3.29528,-4.52302 0.17965,-0.14552 0.58872,-0.85989 0.90908,-1.5875 0.77644,-1.76357 2.67621,-4.89479 2.96973,-4.89479 0.12883,0 0.23601,-0.20836 0.23818,-0.46302 0.003,-0.25466 0.4784,-1.40859 1.05834,-2.56428 0.57991,-1.1557 1.05449,-2.2868 1.0546,-2.51355 0,-0.59552 0.92543,-2.94329 1.24068,-3.14857 0.52152,-0.33961 0.87913,-1.3522 0.94316,-2.6707 0.0357,-0.73485 0.1469,-1.33694 0.24712,-1.33798 0.10023,-10e-4 0.2558,-0.56744 0.34573,-1.25867 0.0899,-0.69122 0.33534,-1.5728 0.54536,-1.95905 0.21006,-0.38625 0.3819,-1.08716 0.3819,-1.55757 0,-0.47041 0.48829,-1.85948 1.08509,-3.08683 0.88889,-1.82808 1.0559,-2.40754 0.92366,-3.20493 -0.0888,-0.53537 -0.26546,-2.71725 -0.39264,-4.84863 -0.18492,-3.09967 -0.39056,-4.39701 -1.02749,-6.48229 -0.43796,-1.43388 -0.93496,-3.28383 -1.10442,-4.111 -0.18754,-0.9155 -0.61278,-1.88732 -1.08678,-2.48378 -0.42825,-0.5389 -0.77867,-1.15151 -0.77867,-1.36134 0,-0.20983 -0.27966,-1.11619 -0.62148,-2.01414 -0.34181,-0.89794 -0.75136,-2.31301 -0.91008,-3.14459 -0.40365,-2.11439 -1.81991,-4.84479 -3.2544,-6.27413 -1.77404,-1.76764 -5.0023,-3.58579 -7.78174,-4.38265 -3.13206,-0.89795 -4.2453,-1.4605 -6.4043,-3.23629 -0.9888,-0.81327 -2.41054,-1.87257 -3.15947,-2.354 -0.74892,-0.48143 -1.61202,-1.28037 -1.91799,-1.77542 -0.30593,-0.49505 -1.0161,-1.2044 -1.57813,-1.57633 -0.8532,-0.56462 -1.04812,-0.86523 -1.18091,-1.82127 -0.0874,-0.62976 -0.34198,-1.79551 -0.56558,-2.59055 -0.54941,-1.95345 -0.40018,-10.028161 0.2023,-10.947671 0.26316,-0.40165 0.31454,-0.74491 0.15431,-1.03121 -0.14089,-0.25178 -0.14343,-0.68286 -0.006,-1.042998 0.90467,-2.373056 1.10683,-3.424446 1.03685,-5.392385 -0.0812,-2.28459 0.19778,-8.106685 0.60471,-12.618114 0.14112,-1.56451 0.18513,-3.129264 0.0978,-3.477231 -0.0926,-0.369038 0.0271,-0.9922 0.28739,-1.495493 0.38182,-0.738368 0.44812,-1.801559 0.45968,-7.370683 0.008,-4.015198 -0.0975,-6.862554 -0.2763,-7.4339 -0.15939,-0.509323 -0.52914,-1.699948 -0.82169,-2.645833 -0.29255,-0.945886 -0.77602,-2.422883 -1.07439,-3.282217 -0.29837,-0.859333 -0.54251,-1.856476 -0.54251,-2.215873 0,-1.613746 -2.90898,-7.356654 -4.54027,-8.963426 -0.7043,-0.693714 -1.28056,-1.403811 -1.28056,-1.577989 0,-0.29106 -1.82747,-2.66909 -4.04178,-5.259453 -0.49758,-0.582083 -1.35805,-1.891771 -1.91215,-2.910417 -0.55411,-1.018645 -1.2803,-2.149739 -1.61377,-2.513541 -0.33347,-0.363802 -0.80293,-1.137709 -1.04324,-1.719792 -0.67902,-1.644758 -1.67945,-2.795336 -2.89999,-3.335237 -0.6145,-0.271825 -2.15152,-1.418537 -3.4156,-2.548244 -1.26407,-1.12971 -2.8578,-2.435841 -3.54162,-2.902516 -0.68382,-0.466675 -1.81778,-1.240581 -2.51991,-1.719792 -0.70213,-0.47921 -1.71416,-1.239626 -2.24896,-1.689809 -0.53479,-0.450186 -2.09308,-1.5676274 -3.46285,-2.4832044 -1.36978,-0.91558 -3.21125,-2.245474 -4.09216,-2.955319 -0.88092,-0.7098482 -2.43909,-1.6904072 -3.46263,-2.1790192 -7.10165,-3.39018509 -8.77285,-4.13133859 -12.17971,-5.4015581 -4.19172,-1.5628487 -10.25966,-2.2714029 -18.4799,-2.1578993 -1.57821,0.021802 -3.2443,0.1471189 -3.70241,0.2785057 -0.45818,0.1313868 -1.37036,0.2388844 -2.02712,0.2388844 -0.65676,0 -1.61005,0.126058 -2.11841,0.2801276 -0.50837,0.1540695 -1.8768,0.3321526 -3.04096,0.3957399 -1.97994,0.1081431 -3.24711,0.4514135 -4.93562,1.3370348 -0.38625,0.20259141 -0.82257,0.36834761 -0.96958,0.36834761 -0.65779,0 -4.64654,1.7063931 -5.32685,2.27883239 -0.46027,0.3872944 -0.92524,0.5694124 -1.19221,0.4669657 -0.24792,-0.095136 -0.97608,0.1225259 -1.67962,0.5020654 -0.68308,0.3685064 -1.77774,0.8230579 -2.43258,1.0101159 -0.65485,0.187055 -1.47458,0.555688 -1.82162,0.819187 -0.34705,0.263496 -0.79897,0.479083 -1.00428,0.479083 -0.33014,0 -4.55847,2.1259252 -5.24389,2.6365362 -0.14552,0.108405 -0.62177,0.32543 -1.05834,0.482272 -0.43656,0.156845 -1.66929,0.65037 -2.73939,1.096722 -1.0701,0.446355 -2.23352,0.811554 -2.58536,0.811554 -0.35185,0 -1.08365,0.2843904 -1.62623,0.6319784 -0.54259,0.347588 -2.17714,1.072941 -3.63235,1.611895 -4.0915,1.515334 -8.25216,3.319899 -9.47464,4.109344 -0.60978,0.393782 -2.00166,0.986181 -3.09307,1.316442 -1.0914,0.330258 -2.84084,0.89631 -3.88763,1.257887 -1.69236,0.584568 -2.04418,0.624372 -3.175,0.359222 -0.69946,-0.164007 -1.90439,-0.322781 -2.67762,-0.352835 l -1.40588,-0.05464 0.14248,-1.198501 c 0.0784,-0.659175 0.21928,-2.151002 0.31315,-3.315169 0.0939,-1.164166 0.26165,-2.235729 0.37283,-2.381249 0.515,-0.674042 0.7784,-11.36489729 0.29199,-11.85130469 -0.16119,-0.1611894 -0.29307,-0.8574748 -0.29307,-1.54730181 0,-0.6898269 -0.28463,-2.0649988 -0.63252,-3.0559374 -0.34789,-0.9909386 -0.70005,-2.1000534 -0.78258,-2.4647022 -0.20587,-0.9096586 -1.92008,-2.4756691 -3.28661,-3.0024839 -0.62141,-0.239559 -1.78622,-0.435562 -2.58848,-0.435562 -2.33213,0 -4.14664,1.1657806 -7.43568,4.7772768 -0.76663,0.8417877 -2.73663,3.6081493 -2.73663,3.8429008 0,0.055187 -0.47573,0.7278317 -1.05719,1.49476611 -0.58146,0.7669372 -1.05771,1.54325899 -1.05834,1.72516009 -5.3e-4,0.181901 -0.1202,0.3307291 -0.26572,0.3307291 -0.14552,0 -0.26458,0.128106 -0.26458,0.2846811 0,0.1565725 -0.51257,0.9602443 -1.13904,1.7859374 -1.15049,1.516361 -3.08718,5.1907362 -3.1027,5.8866172 -0.005,0.207428 -0.18323,0.6082554 -0.39688,0.8907304 -0.21365,0.282474 -0.38846,0.765733 -0.38846,1.073909 0,0.308176 -0.16355,0.783982 -0.36344,1.057349 -0.33328,0.45579 -0.48469,0.469895 -1.82473,0.170008 -1.0179,-0.227795 -1.73652,-0.594325 -2.36838,-1.207973 -0.57363,-0.557104 -1.47267,-1.045372 -2.44561,-1.328214 -0.84619,-0.245994 -1.78976,-0.6028084 -2.09683,-0.7929244 -1.01674,-0.629494 -4.22609,-1.685677 -6.77601,-2.229959 -4.37378,-0.933582 -5.38026,-1.063448 -5.93619,-0.765924 -0.32248,0.172585 -1.47948,0.212553 -3.09268,0.106834 -1.55565,-0.10195 -2.86054,-0.06128 -3.29153,0.102579 -2.31003,0.878273 -2.65162,-0.8170952 -2.51339,-12.4744667 0.0826,-6.9625179 0.0104,-7.6568799 -1.02695,-9.8893919 -0.27048,-0.582083 -0.61991,-1.385754 -0.77652,-1.785937 -0.40011,-1.022456 -0.85215,-0.913093 -2.18101,0.527651 -1.03201,1.118904 -4.99899,5.0782 -6.48208,6.469525 -0.37008,0.347181 -0.6168,0.9949229 -0.72294,1.8980331 -0.0886,0.7540413 -0.40136,1.868191 -0.69496,2.4758886 -0.29361,0.6076951 -0.53383,1.5203461 -0.53383,2.0281106 0,0.5077645 -0.11906,0.9967913 -0.26459,1.0867284 -0.14552,0.089937 -0.26458,0.8014176 -0.26458,1.5810653 0,0.84204171 -0.12488,1.45917441 -0.30761,1.52008411 -0.20412,0.068038 -0.31539,0.98789859 -0.33073,2.73402679 -0.0186,2.1238185 -0.10777,2.6949135 -0.46189,2.9602355 -0.26171,0.196085 -0.38305,0.5418162 -0.30069,0.8567492 0.44102,1.686476 -1.49578,4.5030474 -3.0965,4.5030474 -0.4012,0 -0.87767,0.178594 -1.05883,0.396875 -0.18116,0.218281 -0.47063,0.396875 -0.64327,0.396875 -0.17265,0 -1.00593,0.416719 -1.85174,0.926042 -0.84582,0.509323 -1.74549,0.926041 -1.99928,0.926041 -0.25379,0 -0.74538,0.212056 -1.09242,0.471237 -0.83891,0.626509 -3.28215,1.566666 -4.60207,1.770869 -0.78309,0.12115 -1.16974,0.35415 -1.47747,0.890339 -0.26099,0.454763 -0.80411,0.843452 -1.45288,1.039786 -1.66397,0.503555 -3.62818,1.935522 -4.16672,3.037665 -0.35551,0.727567 -0.65066,0.992188 -1.10665,0.992188 -0.39876,0 -0.68492,0.198744 -0.79767,0.554 -0.31111,0.980228 -1.65607,2.767692 -2.9581,3.931346 -4.30093,3.843829 -8.57797,8.408781 -9.86564,10.529757 -0.28713,0.472943 -0.64582,0.859896 -0.79708,0.859896 -0.15126,0 -0.38582,0.291431 -0.52125,0.647621 -0.13542,0.356192 -0.57896,0.859348 -0.98564,1.118126 -0.40667,0.258778 -0.84383,0.638651 -0.97146,0.844161 -0.12763,0.20551 -0.76339,0.922745 -1.41281,1.593853 -0.64942,0.671107 -1.35026,1.60715 -1.55744,2.080093 -0.20717,0.472943 -0.52391,0.861126 -0.70385,0.862632 -0.17995,0.0016 -0.53557,0.269393 -0.79028,0.595312 -1.05299,1.347422 -3.51455,4.315426 -3.783,4.561327 -0.47418,0.434356 -1.17786,1.673976 -1.17786,2.07496 0,0.205584 -0.17859,0.522007 -0.39688,0.703165 -0.55699,0.462266 -0.49393,1.213064 0.17826,2.122252 0.49933,0.675383 0.53747,0.900631 0.28935,1.70907 -0.29533,0.962284 -0.22666,1.705348 0.24913,2.695588 0.15162,0.315585 0.21535,0.970428 0.1416,1.455209 -0.14827,0.974648 0.99924,3.801678 1.81581,4.4735 0.25181,0.207169 0.7971,1.122974 1.21176,2.035122 1.48478,3.266131 4.83686,6.060244 8.28493,6.905866 0.7276,0.178443 2.24291,0.854549 3.36736,1.502458 1.12444,0.647909 2.09542,1.178017 2.15774,1.178017 0.0623,0 0.98778,0.54896 2.05659,1.219909 1.06882,0.670952 2.28573,1.415092 2.70425,1.653646 0.41853,0.238556 1.07337,0.686662 1.45521,0.995791 0.39213,0.317455 1.30363,0.645575 2.0945,0.75397 1.01883,0.139639 1.50466,0.351277 1.78357,0.776959 0.50125,0.764998 2.04943,1.620142 4.34945,2.402428 1.02038,0.347054 2.1208,0.817014 2.44538,1.04436 0.32458,0.227343 0.75324,0.413353 0.95257,0.413353 0.19932,0 0.66514,0.238125 1.03514,0.529167 0.37,0.291042 0.89316,0.529167 1.16259,0.529167 0.26942,0 1.41422,0.509511 2.544,1.132247 1.12978,0.622737 2.58993,1.290847 3.24477,1.484686 0.65485,0.193841 1.60735,0.57156 2.11667,0.839374 1.27639,0.671156 5.54895,4.865359 8.20351,8.053069 1.21183,1.455211 2.60198,3.062551 3.08924,3.571871 0.48725,0.50933 1.30579,1.46183 1.81897,2.11667 0.51319,0.65484 1.40848,1.72641 1.98953,2.38125 3.16657,3.56869 4.7425,5.56707 4.7425,6.01378 0,0.1179 -0.61423,0.68827 -1.36496,1.26748 -0.75072,0.57922 -1.83948,1.46946 -2.41945,1.97831 -0.57998,0.50886 -1.98348,1.40183 -3.1189,1.98438 -1.13542,0.58255 -3.32317,1.70164 -4.86168,2.48688 -2.58999,1.32191 -3.06648,1.69689 -6.43021,5.06026 -1.99811,1.99791 -4.58543,4.8473 -5.74959,6.33199 -1.16417,1.48468 -2.60063,3.31622 -3.19213,4.07008 -1.53519,1.95658 -2.92877,4.194 -4.08155,6.55298 -0.54994,1.12537 -1.25169,2.31641 -1.55946,2.64676 -0.30776,0.33035 -0.55957,0.79801 -0.55957,1.03926 0,0.24124 -0.17942,0.79827 -0.3987,1.23783 -0.55577,1.11408 -0.55962,4.3261 -0.008,6.50153 0.31156,1.22824 0.37103,1.8972 0.18824,2.11745 -0.18311,0.22064 -0.15214,0.52987 0.0984,0.98264 0.20111,0.36337 0.36987,0.82701 0.37502,1.03031 0.0198,0.78206 1.96621,2.74852 3.3076,3.34175 0.74424,0.32914 1.5118,0.78959 1.7057,1.02322 0.1939,0.23362 0.53895,0.42478 0.76679,0.42478 0.6084,0 2.11728,-1.10504 2.2614,-1.65616 0.0684,-0.26163 0.2648,-0.44252 0.43639,-0.40196 0.47061,0.11123 1.00731,-0.81544 0.61445,-1.06092 -0.17036,-0.10646 -0.39312,-0.52575 -0.49503,-0.93177 -0.1019,-0.40601 -0.64095,-1.10439 -1.19788,-1.55196 -0.56702,-0.45566 -1.08505,-1.1436 -1.17724,-1.56334 -0.25715,-1.17076 -1.41963,-3.42206 -1.85286,-3.58831 -0.49599,-0.19033 -0.50212,-1.35089 -0.0133,-2.52075 0.55637,-1.33153 2.86004,-3.39358 3.79123,-3.39358 0.41369,0 0.86528,-0.10468 1.00352,-0.23263 0.13825,-0.12794 0.68999,-0.3727 1.22609,-0.54392 1.05876,-0.33814 2.42989,-1.69934 3.36747,-3.34307 0.32619,-0.57187 1.06905,-1.37234 1.65079,-1.77882 0.71494,-0.49955 1.25864,-1.19337 1.67767,-2.14088 0.67709,-1.53101 1.44624,-2.26711 3.61045,-3.45531 3.24555,-1.78188 5.34426,-2.55354 7.37201,-2.71057 1.09141,-0.0845 2.20071,-0.26514 2.46513,-0.40137 0.98166,-0.50577 6.96779,-0.91661 10.30102,-0.70697 1.00864,0.0634 2.85211,-0.30587 6.15156,-1.23235 l 2.38125,-0.66865 1.36549,0.73592 c 0.75102,0.40475 2.55826,1.53958 4.0161,2.52185 1.45783,0.98226 2.76361,1.78593 2.90172,1.78593 0.13811,0 0.41446,0.24446 0.61411,0.54323 0.37366,0.55919 2.16818,1.12292 2.8818,0.90531 0.22118,-0.0675 1.23321,0.18625 2.24896,0.56378 1.01575,0.37753 2.05518,0.74793 2.30984,0.82311 0.34877,0.10297 0.46302,0.41981 0.46302,1.28402 0,0.63103 0.13007,1.43281 0.28906,1.78173 0.2384,0.52325 0.16809,0.87312 -0.40134,1.99682 -0.37971,0.74933 -0.79798,1.36242 -0.92949,1.36242 -0.1315,0 -0.32072,0.37164 -0.42049,0.82586 -0.10512,0.47859 -0.38647,0.87949 -0.6691,0.9534 -0.26825,0.0701 -0.94022,0.79057 -1.49328,1.60092 -0.55306,0.81036 -1.27346,1.74514 -1.60088,2.07728 -0.32742,0.33215 -0.59531,0.77927 -0.59531,0.9936 0,0.21434 -0.26789,0.60848 -0.59531,0.87589 -0.62159,0.50765 -2.31511,2.80407 -2.31511,3.13929 0,0.53021 -2.85959,3.93797 -5.68854,6.77902 -3.83087,3.84725 -7.06464,6.48992 -8.3725,6.84209 -0.53119,0.14303 -1.02923,0.42538 -1.10677,0.62743 -0.0775,0.20206 -0.59579,0.51555 -1.15168,0.69666 -0.5559,0.18111 -1.99527,0.7884 -3.19861,1.34955 -1.20335,0.56114 -2.26724,1.02026 -2.3642,1.02026 -0.097,0 -0.4221,0.22891 -0.72252,0.5087 -0.54148,0.50429 -7.25967,2.40172 -8.50372,2.40172 -1.52243,0 -3.0186,1.40016 -2.51056,2.34945 0.51201,0.95669 1.88772,1.35687 4.14815,1.20665 1.14762,-0.0763 2.3967,-0.18677 2.77573,-0.24558 0.37904,-0.0588 0.91482,0.0483 1.19063,0.23813 0.27581,0.18977 1.37618,0.47295 2.44527,0.62929 1.07334,0.15696 2.15946,0.47942 2.42539,0.72007 0.52242,0.47278 1.16936,0.28594 1.85013,-0.53433 0.43614,-0.52553 3.00098,-2.24702 3.34781,-2.24702 0.13856,0 0.66202,-0.30588 1.16324,-0.67974 0.50121,-0.37386 1.56614,-0.97963 2.3665,-1.34615 0.80037,-0.36653 1.93146,-0.88503 2.51354,-1.15223 0.58209,-0.26721 1.35599,-0.57154 1.7198,-0.6763 0.3638,-0.10476 1.01864,-0.45163 1.4552,-0.77084 0.43657,-0.3192 1.4486,-0.90828 2.24896,-1.30907 0.80037,-0.40079 1.57427,-0.87545 1.71979,-1.0548 0.14552,-0.17935 1.45521,-0.9582 2.91042,-1.73077 1.45521,-0.77257 2.94349,-1.66614 3.30729,-1.9857 0.3638,-0.31957 1.25542,-0.96387 1.98137,-1.43178 0.72595,-0.46791 1.44032,-1.07021 1.5875,-1.33844 0.14718,-0.26824 0.80337,-0.91741 1.45821,-1.44261 0.65485,-0.5252 1.36922,-1.11605 1.5875,-1.31301 0.21828,-0.19695 1.06175,-0.77854 1.87437,-1.2924 1.50183,-0.94969 2.62355,-2.1169 2.62355,-2.72993 0,-0.18626 0.58138,-0.76543 1.29195,-1.28704 1.39634,-1.02501 3.20596,-2.90466 3.20596,-3.33002 0,-0.14468 0.40308,-0.70989 0.89573,-1.25601 0.49265,-0.54612 1.07588,-1.42505 1.29606,-1.95318 0.30973,-0.7429 0.78068,-1.16748 2.08084,-1.87595 0.92428,-0.50365 2.2291,-1.23311 2.8996,-1.62103 l 1.2191,-0.70529 0.70749,0.55651 c 0.38912,0.30608 1.11275,1.19004 1.60807,1.96434 0.54569,0.85305 1.42954,1.75412 2.24289,2.28659 0.73827,0.48331 1.40369,1.07213 1.47871,1.30849 0.27297,0.86007 2.90747,2.82567 5.81214,4.33643 0.43656,0.22706 1.09141,0.58649 1.45521,0.79874 0.3638,0.21224 1.01864,0.39176 1.45521,0.39893 0.96599,0.0159 4.75656,1.04304 6.74687,1.82827 0.80037,0.31577 2.70537,0.99976 4.23333,1.51999 1.52797,0.52022 3.55204,1.29996 4.49792,1.73275 0.94589,0.43278 2.43417,0.99771 3.30729,1.25538 0.87313,0.25767 2.06375,0.68217 2.64584,0.94332 0.58208,0.26115 1.54704,0.49922 2.14435,0.52906 0.59732,0.0298 2.24531,0.44045 3.66222,0.91249 1.4169,0.47204 3.30944,1.02954 4.20564,1.23889 4.04276,0.94435 4.60756,1.09347 5.08783,1.34323 0.2807,0.14598 1.10568,0.35038 1.83329,0.45422 0.7276,0.10385 2.15795,0.6398 3.17854,1.19101 1.12503,0.60761 2.42716,1.079 3.30729,1.19728 0.79842,0.10729 1.86839,0.36752 2.37771,0.57828 0.52481,0.21717 1.28064,0.31726 1.74445,0.23102 0.48015,-0.0893 1.51904,0.0607 2.51354,0.36295 0.93233,0.28332 2.29045,0.5991 3.01805,0.70173 1.8685,0.26355 2.67009,0.59293 2.31272,0.9503 -0.15785,0.15784 -0.22531,0.44774 -0.14992,0.64421 0.19973,0.52047 -0.506,1.95955 -0.96097,1.95955 -0.21383,0 -1.60566,0.6154 -3.09296,1.36756 -1.73556,0.87772 -3.11321,1.39562 -3.84611,1.4459 -0.62806,0.0431 -2.03489,0.18912 -3.1263,0.32454 -1.09141,0.13541 -3.94891,0.32701 -6.35,0.42576 -3.64378,0.14986 -5.04372,0.0891 -8.46667,-0.36755 -7.10566,-0.94793 -9.48023,-0.73841 -13.28404,1.17213 -1.59555,0.80141 -4.70762,3.43692 -4.70762,3.98675 0,0.20506 0.50601,0.74358 1.12448,1.1967 1.78772,1.30979 2.16658,1.42543 3.16175,0.96511 0.48023,-0.22213 1.14361,-0.48549 1.47417,-0.58524 0.59719,-0.18021 0.59848,-0.1749 0.20114,0.83046 -0.6977,1.76534 -1.72885,6.80557 -1.44946,7.08496 0.25122,0.25122 0.99987,-0.42633 2.3066,-2.08757 0.49302,-0.62677 2.70684,-2.21019 4.2294,-3.02503 0.29063,-0.15555 2.06113,-0.58368 3.93444,-0.95141 1.87331,-0.36772 4.12039,-0.81417 4.99352,-0.99209 0.87312,-0.17792 1.6873,-0.29393 1.80927,-0.25779 0.41855,0.12399 7.71565,-1.04007 9.17094,-1.46298 0.86217,-0.25056 2.31781,-0.40943 3.57187,-0.38985 1.36342,0.0213 2.82284,-0.15352 4.10104,-0.49122 1.09141,-0.28836 2.99641,-0.75346 4.23334,-1.03355 3.76678,-0.85297 5.821,-1.49735 8.46519,-2.65541 0.94669,-0.41462 2.69947,-1.00297 3.89507,-1.30743 2.56522,-0.65326 5.81597,-1.83493 7.48349,-2.7203 0.65484,-0.34769 1.78593,-0.84069 2.51354,-1.09556 0.7276,-0.25487 2.03729,-0.80861 2.91041,-1.23054 0.87313,-0.42193 2.89719,-1.38072 4.49792,-2.13066 1.60073,-0.74993 3.08901,-1.51549 3.30729,-1.70125 0.21828,-0.18575 1.7661,-1.04469 3.43959,-1.90875 1.67349,-0.86405 3.51895,-1.85369 4.10104,-2.1992 1.87796,-1.1147 3.38695,-1.84816 3.80234,-1.84816 0.22296,0 1.62328,-0.59191 3.11183,-1.31535 1.48855,-0.72345 3.46926,-1.50697 4.40157,-1.74116 2.10844,-0.52962 3.83383,-1.65187 7.60594,-4.94713 1.62414,-1.41883 3.10265,-2.57969 3.28558,-2.57969 0.18293,0 0.55941,0.25541 0.83662,0.56758 0.27722,0.31217 1.01005,0.79399 1.62851,1.07071 0.61847,0.27673 1.12448,0.59578 1.12448,0.70901 0,0.11322 -2.17289,2.41867 -4.82864,5.12321 -4.37049,4.45078 -5.02949,5.01734 -6.94532,5.97106 -2.21361,1.10196 -5.26243,3.36491 -5.95416,4.41939 -0.22237,0.33897 -1.01624,1.10355 -1.76416,1.69905 -0.74793,0.59551 -1.47931,1.40899 -1.62529,1.80772 -0.41217,1.12578 -2.87508,3.30775 -6.64198,5.88435 -0.74461,0.50932 -2.02742,1.43206 -2.85068,2.05052 -0.82327,0.61847 -1.59475,1.12448 -1.71442,1.12448 -0.11966,0 -0.6644,0.38695 -1.21052,0.8599 -0.54612,0.47294 -1.19394,0.97896 -1.43958,1.12448 -0.24564,0.14552 -1.13861,0.72145 -1.98437,1.27985 -4.64299,3.06544 -5.1706,3.34248 -7.66944,4.02708 -0.23119,0.0633 -0.23898,0.31936 -0.0304,0.99898 0.42668,1.39028 0.10991,2.19737 -1.00713,2.56603 -0.52346,0.17276 -1.26765,0.47893 -1.65377,0.68039 -0.38611,0.20145 -0.8534,0.36701 -1.03842,0.36791 -0.18502,8e-4 -0.80288,0.31033 -1.37303,0.68764 -0.81001,0.53603 -1.21778,0.64621 -1.86534,0.50398 -0.55681,-0.1223 -1.32166,-0.007 -2.33114,0.35114 -2.93248,1.04063 -8.66792,2.6922 -9.34926,2.6922 -0.3804,0 -1.03267,0.17787 -1.44948,0.39525 -0.41682,0.21738 -0.95918,0.39598 -1.20526,0.39687 -0.24607,8e-4 -0.52421,0.12591 -0.61809,0.27781 -0.2882,0.46632 0.42391,1.04625 1.29633,1.05572 0.45513,0.005 1.30375,0.23902 1.88584,0.52019 0.58208,0.28117 1.20716,0.51525 1.38906,0.52019 1.13459,0.0308 -0.9378,1.77802 -2.88741,2.43436 -0.4856,0.16347 -1.00197,0.3835 -1.14749,0.48894 -0.14552,0.10544 -0.74083,0.3424 -1.32291,0.52658 -0.58209,0.18418 -1.51745,0.56574 -2.07858,0.84792 -0.56113,0.28218 -1.75175,0.67984 -2.64583,0.88369 -0.89408,0.20385 -2.87575,0.65613 -4.40372,1.00506 -3.98688,0.91047 -10.23779,1.88801 -13.75833,2.15158 -1.09141,0.0817 -2.34156,0.25575 -2.77813,0.38676 -0.43656,0.13102 -1.47836,0.31569 -2.3151,0.41039 -1.51054,0.17096 -1.52136,0.17841 -1.52136,1.04679 0,0.48104 -0.1577,1.00549 -0.35045,1.16546 -0.75792,0.62902 -7.11729,1.49923 -11.5558,1.5813 -1.91128,0.0353 -3.70414,0.35442 -3.70317,0.65908 5.3e-4,0.17143 0.23867,0.70152 0.52916,1.17798 0.2905,0.47646 0.52818,0.9663 0.52818,1.08853 0,0.12224 -0.56555,0.43552 -1.25677,0.69618 -0.69122,0.26069 -1.58296,0.74437 -1.98164,1.07491 -0.47558,0.39426 -1.24904,0.66157 -2.24896,0.77719 -0.83825,0.0969 -2.06896,0.33123 -2.73491,0.52065 -0.66595,0.18941 -1.51581,0.28609 -1.88858,0.21484 -0.37277,-0.0713 -0.91135,-0.004 -1.19685,0.14825 -0.38903,0.2082 -1.26443,0.1102 -3.49393,-0.39111 -1.63617,-0.36788 -3.05125,-0.59248 -3.14463,-0.49911 -0.0934,0.0934 0.0835,0.36999 0.39301,0.61471 0.30954,0.24471 0.7572,0.83166 0.99481,1.30436 0.2376,0.47271 0.84577,1.23598 1.35148,1.69617 0.50571,0.46019 0.91947,0.97787 0.91947,1.15041 0,1.24248 2.21133,3.8346 3.27128,3.8346 0.90852,0 3.34331,2.90711 3.34331,3.99188 0,0.55433 -0.12996,0.77298 -0.46303,0.77904 -0.25466,0.004 -0.68217,0.17446 -0.95004,0.37745 -0.63357,0.48009 -0.43305,1.09151 0.91882,2.80178 0.8638,1.09278 1.51327,1.55623 3.52529,2.51555 1.35653,0.64678 2.53785,1.17597 2.62515,1.17597 0.0873,0 0.84467,0.52041 1.68304,1.15644 1.77217,1.34451 4.87781,2.54773 6.57595,2.54773 0.73809,0 1.67502,0.249 2.48898,0.66145 0.81403,0.41252 1.75088,0.66146 2.48913,0.66146 0.65109,0 1.26193,0.12642 1.35742,0.28091 0.22465,0.36349 1.29272,0.78732 2.67846,1.06291 0.60558,0.12041 1.61761,0.45194 2.24896,0.73671 1.57555,0.71067 3.08424,0.87357 8.12984,0.87796 2.87162,0.003 5.34896,-0.15509 7.33499,-0.46656 2.80913,-0.44056 3.02994,-0.4422 3.48993,-0.0259 0.3968,0.35909 1.04623,0.44439 3.38315,0.44439 2.60554,0 2.92482,0.0524 3.22255,0.52917 0.18176,0.29104 0.50805,0.52917 0.7251,0.52917 0.21705,0 0.39464,0.1701 0.39464,0.37798 0,0.20788 0.17508,0.55306 0.38908,0.76705 0.41437,0.41437 0.62601,0.37767 4.638,-0.80414 z"
         id="path977"
         style="fill:#000000;stroke-width:0.26458299" />
      <path
         d="m 1662.8237,642.73699 c 0,-3.54781 -6.7125,-6.22535 -18.5143,-7.38518 -14.758,-1.45033 -13.7367,-1.4446 -46.1337,-0.25933 -26.6207,0.97394 -27.0047,0.94361 -39.9908,-3.15927 -7.2115,-2.27847 -14.1117,-4.61393 -15.3336,-5.18993 -2.9645,-1.39743 -13.3047,-4.08669 -25.5657,-6.64913 -10.5926,-2.21372 -16.7873,-4.85168 -24.0525,-10.24238 -2.4439,-1.81333 -8.6513,-5.17716 -13.7943,-7.47517 -5.8625,-2.6195 -11.2498,-6.39672 -14.4411,-10.12505 -5.8298,-6.81074 -6.3228,-9.26624 -2.128,-10.59762 6.6529,-2.11154 0.7303,-14.34442 -9.4336,-19.48482 -4.8033,-2.42928 -11.156,-9.00739 -11.2491,-11.64827 -0.029,-0.83066 -3.0186,-5.47474 -6.6428,-10.32017 -3.6242,-4.84543 -6.4506,-8.94886 -6.2807,-9.1187 0.1698,-0.16986 4.6348,0.61741 9.9221,1.74946 9.6054,2.05664 11.5393,1.98549 29.6086,-1.08941 12.6159,-2.14685 27.2626,-9.40573 25.8541,-12.81321 -2.9348,-7.09967 -2.7667,-7.34924 5.4799,-8.13831 47.8853,-4.58185 50.1288,-5.05587 50.1288,-10.59215 0,-3.02212 1.0431,-3.5838 9.2571,-4.98445 5.0914,-0.86821 15.2558,-2.2937 22.5874,-3.16776 34.1909,-4.07616 59.9213,-9.81985 80.1683,-17.89558 14.3898,-5.73953 22.1422,-10.63214 20.6564,-13.03632 -0.5856,-0.94744 -5.8626,-2.84078 -15.2888,-5.48543 -3.8575,-1.08227 -1.5967,-3.25455 5.184,-4.98106 3.8695,-0.98526 15.0336,-4.16482 24.8091,-7.06572 9.7755,-2.90091 20.2888,-5.4454 23.3628,-5.65445 3.0741,-0.20905 6.4148,-1.06521 7.4237,-1.90258 1.009,-0.8374 5.6252,-2.94078 10.2582,-4.6742 8.6405,-3.23284 11.0851,-6.30186 9.3568,-11.74708 -0.7302,-2.3007 0.5621,-3.49611 6.9356,-6.41544 18.7432,-8.58515 75.7266,-49.37431 81.0815,-58.03875 4.8788,-7.89414 21.1629,-22.28301 32.9781,-29.13995 7.6349,-4.43086 16.0815,-11.62285 28.9276,-24.6307 9.9791,-10.10487 18.1439,-18.87613 18.1439,-19.49169 0,-1.47851 -11.6158,-9.05109 -13.8838,-9.05109 -0.9728,0 -7.0277,4.37225 -13.4552,9.71612 -12.1286,10.08372 -21.1079,15.87224 -27.4632,17.70416 -9.3138,2.68473 -37.2184,15.71615 -62.6174,29.2423 -33.2021,17.68169 -60.8123,29.93148 -89.9401,39.90357 -28.9848,9.92314 -62.8892,18.91974 -71.3898,18.94343 -3.8281,0.0104 -13.8258,1.32736 -22.2171,2.92598 -8.3913,1.59863 -20.589,3.56863 -27.106,4.37781 -18.6304,2.31322 -40.1434,7.16684 -46.7857,10.55547 -3.3423,1.7051 -9.077,6.10036 -12.7439,9.76722 -3.6669,3.66687 -7.0423,6.29176 -7.5009,5.83313 -0.4587,-0.45865 0.6054,-6.70286 2.3646,-13.87602 1.7592,-7.17317 3.1985,-13.48026 3.1985,-14.01576 0,-0.53549 -2.5852,-0.0615 -5.7449,1.05332 -5.1512,1.81745 -6.2061,1.74651 -10.2064,-0.68621 -2.4538,-1.49224 -4.9423,-3.49129 -5.5301,-4.44233 -1.714,-2.77333 8.0055,-11.5779 18.4814,-16.74167 8.9425,-4.40789 10.592,-4.71766 24.4389,-4.58942 8.167,0.0757 25.5133,0.65331 38.5473,1.28372 33.6177,1.62596 51.8826,-0.4331 68.2401,-7.69297 11.328,-5.02762 12.6824,-6.06647 13.965,-10.71188 0.7813,-2.82938 0.9338,-5.62417 0.3391,-6.21066 -1.2625,-1.24487 -19.2124,-5.23674 -32.6156,-7.25335 -5.1243,-0.77101 -13.1225,-2.78421 -17.7737,-4.47379 -15.3135,-5.56276 -72.4894,-22.10251 -76.4057,-22.10251 -1.1612,0 -12.0085,-3.74185 -24.105,-8.31522 -31.2741,-11.82385 -53.5214,-19.29307 -61.244,-20.56178 -11.4793,-1.88592 -25.9882,-11.62062 -42.7916,-28.71091 l -15.3905,-15.65328 -9.7889,5.29232 c -7.6257,4.12281 -11.2617,7.33478 -16.454,14.53508 -7.8429,10.87602 -29.7398,33.28415 -42.7873,43.78637 -5.0604,4.07314 -12.3333,9.91405 -16.162,12.9798 -9.3463,7.48364 -45.5777,28.71434 -58.8463,34.48244 -5.8728,2.55301 -12.7004,6.08205 -15.1725,7.84233 -2.4721,1.76026 -5.0583,3.20336 -5.7472,3.20686 -0.6889,0.003 -4.6943,2.61589 -8.9009,5.80527 -4.2066,3.1894 -7.9747,5.47268 -8.3734,5.07397 -0.3987,-0.3987 -5.9548,-2.05576 -12.3469,-3.68233 -8.193,-2.08483 -14.0387,-2.69895 -19.8125,-2.08142 -9.7282,1.04047 -17.7296,-1.25459 -17.7296,-5.08539 0,-4.06819 2.8758,-5.61144 15.2009,-8.15725 6.2594,-1.29291 13.8979,-3.27694 16.9745,-4.40894 7.0405,-2.59053 33.8436,-14.80291 36.3242,-16.55055 1.0201,-0.71862 4.3426,-2.56648 7.3834,-4.10633 11.1529,-5.64784 45.7448,-39.99738 51.4173,-51.05702 1.5135,-2.95097 4.483,-6.98123 6.5988,-8.95614 2.1159,-1.97492 3.847,-4.13364 3.847,-4.79717 0,-1.93116 13.4022,-19.01318 14.9174,-19.01318 0.7563,0 1.3752,-0.68081 1.3752,-1.5129 0,-0.83209 1.7002,-4.08207 3.7782,-7.22216 3.2924,-4.97515 3.6492,-6.68181 2.7749,-13.27268 -0.5518,-4.15987 -1.7522,-8.14707 -2.6674,-8.86047 -2.6403,-2.05803 -15.9033,-6.16031 -19.9168,-6.16031 -2.0099,0 -10.1106,-4.2573 -18.0015,-9.46067 -23.5006,-15.49645 -21.9121,-15.00478 -36.859,-11.40847 -7.6294,1.83568 -20.2656,3.38978 -31.3071,3.8504 -10.1829,0.42481 -21.8469,1.42171 -25.92,2.21535 -4.0731,0.79362 -11.0715,2.13601 -15.552,2.98307 -11.5805,2.18939 -31.0204,12.90222 -35.0257,19.30178 -1.7584,2.80953 -5.5268,7.77429 -8.3743,11.0328 -2.8474,3.25851 -7.6449,8.74601 -10.6611,12.19447 -3.8912,4.44868 -8.0452,7.2037 -14.3009,9.48466 -14.3416,5.22919 -21.9019,17.04708 -16.0876,25.14734 1.5291,2.13037 3.8619,6.4627 5.1838,9.62741 1.322,3.16471 3.9531,7.42031 5.847,9.45688 6.9134,7.43451 7.1021,9.34083 1.4394,14.5379 -2.8268,2.5943 -5.8157,4.71693 -6.642,4.71693 -2.864,0 -17.5053,-10.24728 -19.9311,-13.94952 -3.3293,-5.08108 -6.634,-31.26316 -5.0299,-39.84963 3.0413,-16.27898 31.06,-56.85788 58.4025,-84.58304 13.4133,-13.60105 16.4999,-15.89337 32.5902,-24.20388 17.8704,-9.2299 36.288,-22.49031 36.288,-26.12687 0,-2.53244 -2.3767,-5.56393 -27.9725,-35.679877 -22.7984,-26.82445 -43.087,-47.477831 -48.1694,-49.035398 -1.7045,-0.522384 -11.0973,-4.609355 -20.8728,-9.082162 -9.7756,-4.472823 -23.0444,-10.371481 -29.4863,-13.10814 -6.4418,-2.736674 -13.107,-6.2386978 -14.8114,-7.7822981 -1.7043,-1.5436004 -5.0761,-3.2761944 -7.4928,-3.8502252 -2.4166,-0.5740309 -10.1251,-4.5888701 -17.1299,-8.9218731 -15.0443,-9.3059926 -28.0112,-15.9858626 -39.04641,-20.1146756 -20.87522,-7.810425 -39.10198,-36.427292 -40.04965,-62.879828 -0.11674,-3.258509 -0.74059,-7.685683 -1.38633,-9.838181 -0.81451,-2.715022 -0.38985,-5.436722 1.38659,-8.886842 2.99565,-5.81803 19.74929,-26.44977 21.47807,-26.44977 0.65015,0 1.55315,-1.16911 2.00666,-2.59801 0.45352,-1.4289 4.88765,-6.86787 9.85362,-12.08659 4.96598,-5.21874 12.55465,-13.88071 16.86385,-19.24883 4.3091,-5.36812 15.5514,-17.39488 24.9829,-26.72612 9.4315,-9.33125 18.3311,-19.16232 19.7768,-21.84683 1.4457,-2.6845 3.3101,-4.88093 4.1432,-4.88096 0.833,-3e-5 3.2505,-2.17562 5.3721,-4.83465 2.1216,-2.65903 6.454,-6.14989 9.6274,-7.75747 3.1734,-1.60758 7.4362,-4.31907 9.4727,-6.02554 2.0366,-1.70646 6.7022,-3.95496 10.368,-4.99666 3.6659,-1.0417 14.1147,-5.4858 23.2197,-9.87579 9.105,-4.38998 17.2105,-7.98179 18.0123,-7.98179 3.0979,0 9.1268,-9.17419 9.1268,-13.88825 0,-2.62576 0.6126,-5.40731 1.3613,-6.1812 0.7487,-0.7739 1.6675,-5.73942 2.0417,-11.0345 0.7067,-9.99885 3.7737,-25.96814 7.6772,-39.97333 1.9932,-7.15144 4.0869,-9.95624 17.4131,-23.32796 8.3311,-8.35954 15.5771,-15.19917 16.1024,-15.19917 0.5252,0 2.5227,3.4992 4.4389,7.77599 3.2563,7.26749 3.5442,10.19739 4.4034,44.80451 0.5056,20.36568 1.0194,37.14753 1.1417,37.293 3.2974,3.91982 4.8614,4.15392 21.7506,3.25564 15.2052,-0.80872 19.6249,-0.47582 32.4728,2.44591 16.6849,3.79429 37.138,11.61424 45.8125,17.51573 3.1686,2.15563 7.577,3.91934 9.7965,3.91934 3.4565,0 4.4141,-1.00937 6.6741,-7.03542 7.1027,-18.93849 30.7013,-55.71944 44.5568,-69.44674 13.2782,-13.15526 23.3012,-15.4267 35.3134,-8.00278 6.339,3.91772 9.0988,9.8542 12.9291,27.81152 3.2153,15.07393 3.1491,34.12994 -0.1944,55.93285 -0.7495,4.88776 -1.7102,11.97588 -2.1348,15.75139 l -0.772,6.86454 12.1676,0.97992 c 11.003,0.88611 13.3728,0.5687 24.7574,-3.31595 6.9243,-2.36273 16.2555,-6.15973 20.736,-8.43779 10.6819,-5.43118 43.3899,-19.07306 59.0613,-24.63336 6.8229,-2.42083 19.1534,-7.79108 27.4011,-11.93388 16.106,-8.09009 34.6262,-15.99291 37.4984,-16.00116 0.9717,-0.003 4.0042,-1.32517 6.7388,-2.93862 4.9821,-2.93952 21.6677,-9.56035 30.0041,-11.90557 17.2921,-4.8647 67.458,-7.34986 90.6581,-4.49112 28.1859,3.47311 68.0506,20.57166 97.9032,41.99214 9.5245,6.83422 22.6494,16.26069 29.1664,20.94772 6.517,4.68703 15.1817,11.3346 19.2548,14.77238 4.0732,3.43777 10.5708,8.40244 14.4392,11.03259 3.8685,2.63015 8.1214,6.91684 9.4509,9.52597 4.1427,8.12935 20.624,32.19375 33.1741,48.43753 13.2782,17.18617 19.6836,28.5548 22.7745,40.42141 1.1255,4.32122 3.7843,13.35817 5.9084,20.08209 3.5392,11.2037 3.8553,14.292101 3.7821,36.957952 -0.044,13.602959 -0.6822,30.064757 -1.4184,36.581776 -0.7362,6.517019 -1.7584,24.179621 -2.2715,39.2502276 -0.5245,15.4012564 -1.8161,30.6443124 -2.9493,34.8068064 -1.109,4.073137 -2.8133,14.791056 -3.7874,23.817601 -1.52,14.084285 -1.4265,18.452362 0.6595,30.798898 2.3617,13.979329 2.6301,14.585499 9.4714,21.392929 7.0181,6.98345 26.454,22.10083 32.3756,25.18197 1.7149,0.89227 8.5101,3.59018 15.1005,5.99538 24.0722,8.78528 34.5004,18.9626 40.4083,39.43612 4.0496,14.03357 5.5443,18.12145 9.4811,25.92999 5.1501,10.21498 10.9148,35.98313 12.0274,53.76239 0.9313,14.88276 0.7385,16.68257 -2.7769,25.91996 -4.3359,11.39355 -9.9663,31.35007 -9.9663,35.32501 0,1.48301 -1.631,6.0395 -3.6245,10.12555 -1.9935,4.08606 -5.4801,12.09478 -7.7479,17.79717 -2.2679,5.70239 -5.6981,12.70078 -7.6228,15.55197 -1.9247,2.8512 -5.0832,8.28802 -7.0188,12.08183 -1.9356,3.79381 -6.7054,11.13908 -10.5995,16.32282 -3.8941,5.18376 -8.0799,11.37279 -9.3019,13.75342 -1.2219,2.38062 -4.9306,6.83678 -8.2415,9.90256 -3.3109,3.06577 -7.8123,9.10253 -10.0031,13.41499 -6.2986,12.39864 -8.2281,14.75272 -24.7029,30.13889 -8.5505,7.98551 -18.0283,17.63621 -21.0617,21.44597 -3.0333,3.80977 -11.3673,11.69009 -18.5198,17.51183 -14.6099,11.8917 -31.9871,25.98512 -46.3302,37.5754 -16.4474,13.29062 -39.9478,26.79452 -54.874,31.53193 -1.7001,0.53957 -7.961,3.86027 -13.9133,7.37933 -5.9522,3.51905 -15.7382,8.48631 -21.7465,11.03833 -19.0234,8.08008 -20.7019,8.94077 -33.7193,17.28946 -23.2176,14.89065 -40.7711,24.72872 -50.5215,28.31532 -22.1691,8.15473 -29.6228,9.6455 -29.6228,5.92467 z"
         transform="matrix(0.26458333,0,0,0.26458333,-12.563823,80.823425)"
         id="path979"
         style="fill:#000000;stroke:#000000;stroke-width:2.83465004" />
    </g>
  </g>
</svg>
